<svg width="570" height="282" viewBox="0 0 570 282" fill="none" xmlns="http://www.w3.org/2000/svg">
<g clip-path="url(#clip0_336_237)">
<path d="M519.331 280.62H289.771C283.527 280.62 278.447 274.682 278.447 267.382V86.9818C278.421 85.6056 278.756 84.2487 279.417 83.0623C280.077 81.8759 281.036 80.9065 282.187 80.2623L368.935 24.7677C373.69 22.2735 378.926 20.973 384.234 20.9673C389.543 20.9616 394.781 22.251 399.541 24.735L526.893 80.2567C528.05 80.8985 529.014 81.8682 529.679 83.0571C530.344 84.2459 530.682 85.6069 530.656 86.9874V267.382C530.656 274.682 525.576 280.62 519.331 280.62Z" fill="#F2F2F2"/>
<path d="M485.434 280.425H288.306C282.921 280.425 278.541 276.233 278.541 271.08V144.979C278.566 143.928 278.89 142.91 279.47 142.056C280.051 141.202 280.86 140.552 281.795 140.191L373.582 101.391C382.016 97.865 391.404 97.86 399.841 101.377L491.94 140.193C492.875 140.553 493.687 141.203 494.268 142.057C494.849 142.912 495.174 143.931 495.199 144.983V271.08C495.199 276.233 490.819 280.425 485.434 280.425Z" fill="#ED2E38"/>
<path d="M170.733 148C186.685 148 199.617 134.334 199.617 117.476C199.617 100.618 186.685 86.9521 170.733 86.9521C154.78 86.9521 141.848 100.618 141.848 117.476C141.848 134.334 154.78 148 170.733 148Z" fill="#FF6584"/>
<path d="M182.808 228.607C203.013 228.607 219.392 206.942 219.392 180.217C219.392 153.492 203.013 131.826 182.808 131.826C162.604 131.826 146.225 153.492 146.225 180.217C146.225 206.942 162.604 228.607 182.808 228.607Z" fill="#F2F2F2"/>
<path d="M182.909 170.486H183.009L184.818 280.093H181L182.909 170.486Z" fill="#CCCCCC"/>
<path d="M189.149 243.049C189.26 243.273 189.283 243.535 189.212 243.778C189.141 244.02 188.982 244.222 188.77 244.34L183.523 247.259L182.68 245.568L187.927 242.649C188.139 242.531 188.387 242.506 188.616 242.581C188.845 242.657 189.037 242.825 189.149 243.049Z" fill="#CCCCCC"/>
<path d="M77.6312 228.607C97.8359 228.607 114.215 206.942 114.215 180.217C114.215 153.492 97.8359 131.826 77.6312 131.826C57.4266 131.826 41.0475 153.492 41.0475 180.217C41.0475 206.942 57.4266 228.607 77.6312 228.607Z" fill="#F2F2F2"/>
<path d="M83.9717 244.861C83.8599 244.637 83.6683 244.469 83.4392 244.394C83.21 244.318 82.962 244.343 82.7497 244.461L79.0867 246.499L77.8321 170.486H77.7316L75.8223 280.093H79.6413L79.1222 248.64L83.5927 246.152C83.8049 246.034 83.964 245.832 84.0351 245.59C84.1061 245.348 84.0833 245.086 83.9717 244.861Z" fill="#CCCCCC"/>
<path d="M130.092 68.6987C155.694 68.6987 176.503 119.675 176.503 153.539C176.503 187.403 155.749 214.855 130.147 214.855C104.546 214.855 83.7916 187.403 83.7916 153.539C83.7916 119.675 104.491 68.6987 130.092 68.6987Z" fill="#ED2E38"/>
<path d="M138.181 235.451C138.111 235.31 138.015 235.185 137.9 235.084C137.784 234.982 137.65 234.905 137.507 234.858C137.363 234.811 137.212 234.794 137.062 234.809C136.912 234.824 136.766 234.869 136.633 234.943L131.991 237.526L130.402 141.209H130.275L127.855 280.093H132.694L132.036 240.238L137.701 237.087C137.834 237.013 137.952 236.912 138.048 236.789C138.145 236.667 138.217 236.526 138.262 236.374C138.306 236.222 138.322 236.062 138.308 235.904C138.294 235.745 138.251 235.591 138.181 235.451Z" fill="#3F3D56"/>
<path d="M340.843 193.767V180.725C340.843 179.024 340.203 177.392 339.065 176.19C337.927 174.987 336.383 174.311 334.773 174.311H303.63C302.02 174.311 300.476 174.987 299.338 176.19C298.2 177.392 297.561 179.024 297.561 180.725V193.767H340.843Z" fill="white"/>
<path d="M297.561 195.815V216.025C297.561 217.726 298.2 219.357 299.338 220.56C300.476 221.763 302.02 222.438 303.63 222.438H334.773C336.383 222.438 337.927 221.763 339.065 220.56C340.203 219.357 340.843 217.726 340.843 216.025V195.815H297.561Z" fill="white"/>
<path d="M487.702 157.969L394.2 121.748C388.517 119.546 382.279 119.546 376.596 121.748L283.094 157.969C281.123 158.732 279.007 158.981 276.926 158.696C274.844 158.41 272.859 157.598 271.138 156.327C269.417 155.057 268.012 153.367 267.042 151.4C266.072 149.433 265.565 147.248 265.565 145.03C265.565 142.208 266.385 139.453 267.915 137.139C269.444 134.825 271.609 133.063 274.117 132.092L376.596 92.3935C382.279 90.1921 388.517 90.1921 394.2 92.3935L496.679 132.092C499.186 133.063 501.351 134.825 502.881 137.139C504.411 139.453 505.231 142.208 505.231 145.03C505.231 147.248 504.724 149.433 503.754 151.4C502.784 153.367 501.378 155.057 499.658 156.327C497.937 157.598 495.952 158.41 493.87 158.696C491.789 158.981 489.673 158.732 487.702 157.969Z" fill="#3F3D56"/>
<path d="M400.496 281.029H375.505C372.853 281.026 370.311 279.911 368.435 277.929C366.56 275.947 365.505 273.26 365.502 270.458V206.503C365.505 203.701 366.56 201.014 368.435 199.032C370.311 197.05 372.853 195.936 375.505 195.932H400.496C403.148 195.936 405.69 197.05 407.566 199.032C409.441 201.014 410.496 203.701 410.499 206.503V270.458C410.496 273.26 409.441 275.947 407.566 277.929C405.69 279.911 403.148 281.026 400.496 281.029ZM375.505 197.745C373.308 197.747 371.201 198.671 369.647 200.313C368.094 201.955 367.22 204.181 367.217 206.503V270.458C367.22 272.78 368.094 275.006 369.647 276.648C371.201 278.29 373.308 279.214 375.505 279.217H400.496C402.693 279.214 404.8 278.29 406.354 276.648C407.908 275.006 408.782 272.78 408.784 270.458V206.503C408.782 204.181 407.908 201.955 406.354 200.313C404.8 198.671 402.693 197.747 400.496 197.745H375.505Z" fill="#3F3D56"/>
<path d="M402.92 59.911C402.517 55.1563 400.445 50.7329 397.112 47.5113C393.778 44.2897 389.425 42.5032 384.907 42.5032C380.39 42.5032 376.036 44.2897 372.703 47.5113C369.369 50.7329 367.297 55.1563 366.895 59.911H402.92Z" fill="white"/>
<path d="M366.827 61.9587C366.911 66.9678 368.852 71.7419 372.234 75.2531C375.615 78.7642 380.166 80.7317 384.907 80.7317C389.648 80.7317 394.199 78.7642 397.581 75.2531C400.962 71.7419 402.904 66.9678 402.987 61.9587H366.827Z" fill="white"/>
<path d="M400.088 83.0819H369.726C368.28 83.0819 366.893 82.4747 365.87 81.3939C364.847 80.3131 364.272 78.8472 364.272 77.3187C364.272 75.7902 364.847 74.3243 365.87 73.2434C366.893 72.1626 368.28 71.5554 369.726 71.5554H400.088C401.535 71.5554 402.922 72.1626 403.945 73.2434C404.967 74.3243 405.542 75.7902 405.542 77.3187C405.542 78.8472 404.967 80.3131 403.945 81.3939C402.922 82.4747 401.535 83.0819 400.088 83.0819Z" fill="#CCCCCC"/>
<path d="M297.884 215.914C296.589 215.914 295.347 216.457 294.431 217.425C293.516 218.392 293.001 219.704 293.001 221.073C293.001 222.441 293.516 223.753 294.431 224.721C295.347 225.688 296.589 226.232 297.884 226.232H340.52C341.814 226.232 343.056 225.688 343.972 224.721C344.887 223.753 345.402 222.441 345.402 221.073C345.402 219.704 344.887 218.392 343.972 217.425C343.056 216.457 341.814 215.914 340.52 215.914H297.884Z" fill="#CCCCCC"/>
<path d="M430.313 195.815V216.025C430.313 217.726 430.953 219.357 432.091 220.56C433.229 221.763 434.773 222.438 436.383 222.438H467.526C469.136 222.438 470.68 221.763 471.818 220.56C472.956 219.357 473.595 217.726 473.595 216.025V195.815H430.313Z" fill="white"/>
<path d="M473.595 193.767V180.725C473.595 179.024 472.956 177.392 471.818 176.19C470.68 174.987 469.136 174.311 467.526 174.311H436.383C434.773 174.311 433.229 174.987 432.091 176.19C430.953 177.392 430.313 179.024 430.313 180.725V193.767H473.595Z" fill="white"/>
<path d="M402.858 240.529C404.821 240.529 406.411 238.848 406.411 236.774C406.411 234.701 404.821 233.02 402.858 233.02C400.896 233.02 399.305 234.701 399.305 236.774C399.305 238.848 400.896 240.529 402.858 240.529Z" fill="#3F3D56"/>
<path d="M283.513 239.191L269.518 216.186L270.166 215.746L283.445 237.575L294.267 215.777L294.948 216.155L283.513 239.191Z" fill="#3F3D56"/>
<path d="M294.909 208.645H261.617V208.035C261.617 207.046 261.433 206.068 261.075 205.155C260.717 204.242 260.192 203.413 259.531 202.714C258.87 202.015 258.085 201.461 257.221 201.083C256.357 200.705 255.432 200.51 254.496 200.51C253.561 200.51 252.635 200.705 251.772 201.083C250.908 201.461 250.123 202.015 249.462 202.714C248.8 203.413 248.276 204.242 247.918 205.155C247.56 206.068 247.376 207.046 247.376 208.035V208.645H244.105C242.216 208.645 240.405 209.437 239.07 210.849C237.735 212.26 236.984 214.173 236.984 216.169C236.984 218.165 237.735 220.078 239.07 221.49C240.405 222.901 242.216 223.693 244.105 223.693H247.376V280.556C261.564 280.256 247.273 280.86 261.617 280.556V223.693H294.909C296.797 223.693 298.608 222.901 299.944 221.49C301.279 220.078 302.029 218.165 302.029 216.169C302.029 214.173 301.279 212.26 299.944 210.849C298.608 209.437 296.797 208.645 294.909 208.645Z" fill="#3F3D56"/>
<path d="M254.304 218.813C255.792 218.813 256.998 217.538 256.998 215.966C256.998 214.393 255.792 213.119 254.304 213.119C252.816 213.119 251.61 214.393 251.61 215.966C251.61 217.538 252.816 218.813 254.304 218.813Z" fill="white"/>
<path d="M299.14 253.686H268.355C266.901 253.684 265.507 253.073 264.479 251.987C263.45 250.9 262.872 249.427 262.87 247.89V237.321C262.872 235.785 263.45 234.312 264.479 233.225C265.507 232.139 266.901 231.528 268.355 231.526H299.14C300.594 231.528 301.988 232.139 303.016 233.225C304.044 234.312 304.623 235.785 304.624 237.321V247.89C304.623 249.427 304.044 250.9 303.016 251.987C301.988 253.073 300.594 253.684 299.14 253.686Z" fill="#CCCCCC"/>
<path d="M293.369 239.962H273.741C272.571 239.962 271.624 240.964 271.624 242.199C271.624 243.435 272.571 244.436 273.741 244.436H293.369C294.539 244.436 295.486 243.435 295.486 242.199C295.486 240.964 294.539 239.962 293.369 239.962Z" fill="#ED2E38"/>
<path d="M569.558 281.161H0.44189C0.324693 281.161 0.212299 281.112 0.129428 281.025C0.046557 280.937 0 280.818 0 280.695C0 280.571 0.046557 280.452 0.129428 280.364C0.212299 280.277 0.324693 280.228 0.44189 280.228H569.558C569.675 280.228 569.788 280.277 569.871 280.364C569.953 280.452 570 280.571 570 280.695C570 280.818 569.953 280.937 569.871 281.025C569.788 281.112 569.675 281.161 569.558 281.161Z" fill="#CCCCCC"/>
<path d="M472.949 226.836H430.313C428.867 226.836 427.48 226.229 426.457 225.148C425.434 224.067 424.86 222.601 424.86 221.073C424.86 219.544 425.434 218.078 426.457 216.998C427.48 215.917 428.867 215.31 430.313 215.31H472.949C474.396 215.31 475.783 215.917 476.806 216.998C477.829 218.078 478.403 219.544 478.403 221.073C478.403 222.601 477.829 224.067 476.806 225.148C475.783 226.229 474.396 226.836 472.949 226.836Z" fill="#CCCCCC"/>
<path d="M530.223 92.9995C530.223 92.9995 519.883 92.2244 498.784 91.1873C473.633 44.6754 391.89 33.4641 391.89 8.29539e-05V0H492.36C502.413 0 512.053 4.21988 519.161 11.7313C526.27 19.2428 530.263 29.4305 530.263 40.0532L530.223 92.9995Z" fill="#CCCCCC"/>
<path d="M443.083 12.2283C442.856 12.2285 442.638 12.3241 442.477 12.4939C442.316 12.6638 442.226 12.8941 442.226 13.1343V43.3853C442.226 43.6255 442.316 43.8558 442.477 44.0257C442.638 44.1956 442.856 44.2911 443.083 44.2914H460.915C461.142 44.2911 461.36 44.1956 461.521 44.0257C461.681 43.8558 461.772 43.6255 461.772 43.3853V13.1343C461.772 12.8941 461.681 12.6638 461.521 12.4939C461.36 12.3241 461.142 12.2285 460.915 12.2283H443.083Z" fill="#F2F2F2"/>
<path d="M492.609 90.5599L399.107 31.0054C393.424 28.8039 387.186 28.8039 381.503 31.0054L288.001 90.5599C286.03 91.3233 283.914 91.5728 281.833 91.287C279.751 91.0013 277.766 90.1889 276.045 88.9188C274.324 87.6487 272.919 85.9584 271.949 83.9916C270.979 82.0247 270.472 79.8395 270.472 77.6214C270.472 74.7989 271.292 72.0443 272.822 69.7303C274.351 67.4163 276.516 65.6545 279.024 64.683L381.503 1.6511C387.186 -0.550368 393.424 -0.550368 399.107 1.6511L501.585 64.683C504.093 65.6544 506.258 67.4163 507.788 69.7303C509.317 72.0443 510.138 74.7988 510.138 77.6214C510.138 79.8395 509.631 82.0247 508.661 83.9915C507.69 85.9584 506.285 87.6487 504.565 88.9188C502.844 90.1889 500.858 91.0013 498.777 91.287C496.696 91.5727 494.58 91.3233 492.609 90.5599Z" fill="#CCCCCC"/>
</g>
<defs>
<clipPath id="clip0_336_237">
<rect width="570" height="281.162" fill="white"/>
</clipPath>
</defs>
</svg>
