<svg width="570" height="285" viewBox="0 0 570 285" fill="none" xmlns="http://www.w3.org/2000/svg">
<g clip-path="url(#clip0_336_331)">
<path d="M155.629 232.327C171.103 232.327 183.647 219.783 183.647 204.309C183.647 188.835 171.103 176.29 155.629 176.29C140.154 176.29 127.61 188.835 127.61 204.309C127.61 219.783 140.154 232.327 155.629 232.327Z" fill="#E4E4E4"/>
<path opacity="0.2" d="M134.941 185.594C132.327 191.708 131.973 198.552 133.94 204.902C135.908 211.253 140.07 216.697 145.682 220.262C151.295 223.827 157.992 225.28 164.577 224.361C171.161 223.443 177.205 220.213 181.628 215.248C180.031 218.984 177.642 222.327 174.625 225.047C171.608 227.767 168.036 229.798 164.156 231C160.276 232.203 156.181 232.547 152.155 232.01C148.129 231.472 144.267 230.066 140.839 227.888C137.41 225.71 134.495 222.813 132.298 219.397C130.1 215.981 128.671 212.128 128.11 208.105C127.549 204.082 127.869 199.985 129.049 196.098C130.228 192.211 132.239 188.627 134.941 185.594Z" fill="black"/>
<path d="M155.706 204.309H155.782L157.168 283.746H154.243L155.706 204.309Z" fill="#3F3D56"/>
<path d="M98.939 180.077C130.138 180.077 155.429 154.785 155.429 123.586C155.429 92.3873 130.138 67.0957 98.939 67.0957C67.7401 67.0957 42.4485 92.3873 42.4485 123.586C42.4485 154.785 67.7401 180.077 98.939 180.077Z" fill="#E4E4E4"/>
<path opacity="0.2" d="M57.2283 85.855C51.959 98.1808 51.2442 111.979 55.2116 124.783C59.179 137.587 67.5701 148.564 78.8854 155.751C90.2007 162.938 103.703 165.867 116.979 164.016C130.256 162.164 142.441 155.652 151.358 145.643C148.139 153.173 143.322 159.914 137.239 165.398C131.156 170.882 123.954 174.978 116.132 177.402C108.309 179.826 100.053 180.52 91.935 179.437C83.8173 178.353 76.0322 175.518 69.1192 171.127C62.2061 166.736 56.3303 160.894 51.899 154.007C47.4676 147.12 44.5866 139.352 43.4555 131.24C42.3244 123.129 42.9703 114.869 45.3485 107.032C47.7266 99.1957 51.7802 91.9696 57.2283 85.855Z" fill="black"/>
<path d="M99.0941 123.586H99.2496L102.043 283.746H96.1456L99.0941 123.586Z" fill="#3F3D56"/>
<path d="M471.382 200.848H212.454V277.605H471.382V200.848Z" fill="#F0F0F0"/>
<path d="M357.014 216.711H326.823V277.605H357.014V216.711Z" fill="#CACACA"/>
<path d="M456.287 110.275H227.55V180.891H456.287V110.275Z" fill="#F0F0F0"/>
<path d="M479.476 114.624H204.36C203.901 114.624 203.452 114.487 203.071 114.23C202.691 113.973 202.396 113.608 202.224 113.182C202.053 112.756 202.012 112.288 202.109 111.839C202.205 111.39 202.433 110.98 202.764 110.661L277.954 38.3886V6.90816C277.955 6.29765 278.198 5.71235 278.629 5.28065C279.061 4.84896 279.646 4.60613 280.257 4.60544H295.096C295.707 4.60611 296.292 4.84893 296.724 5.28063C297.156 5.71233 297.398 6.29764 297.399 6.90816V19.698L303.078 14.2391C312.372 5.30601 324.702 0.221388 337.591 0.00706088C350.48 -0.207266 362.972 4.46458 372.557 13.0837L481.016 110.609C481.362 110.92 481.606 111.33 481.715 111.783C481.824 112.235 481.793 112.711 481.626 113.146C481.46 113.581 481.165 113.955 480.781 114.219C480.397 114.483 479.942 114.624 479.476 114.624V114.624Z" fill="#CACACA"/>
<path d="M287.932 128.185C289.848 128.185 291.744 128.562 293.513 129.295C295.283 130.028 296.89 131.102 298.245 132.456C299.599 133.81 300.673 135.418 301.406 137.187C302.139 138.957 302.516 140.853 302.516 142.768V162.469H273.349V142.768C273.349 140.853 273.726 138.957 274.459 137.187C275.192 135.418 276.266 133.81 277.62 132.456C278.974 131.102 280.582 130.028 282.351 129.295C284.121 128.562 286.017 128.185 287.932 128.185Z" fill="white"/>
<path d="M341.918 128.44C345.786 128.44 349.496 129.977 352.231 132.712C354.966 135.447 356.502 139.156 356.502 143.024V162.725H327.334V143.024C327.334 139.156 328.871 135.447 331.606 132.712C334.341 129.977 338.05 128.44 341.918 128.44Z" fill="white"/>
<path d="M395.904 128.696C399.772 128.696 403.482 130.233 406.217 132.968C408.952 135.703 410.488 139.412 410.488 143.28V162.981H381.32V143.28C381.32 139.412 382.857 135.703 385.592 132.968C388.327 130.233 392.036 128.696 395.904 128.696Z" fill="white"/>
<path d="M417.396 215.944C421.264 215.944 424.974 217.48 427.709 220.215C430.444 222.95 431.98 226.66 431.98 230.527V250.229H402.812V230.527C402.812 226.66 404.349 222.95 407.084 220.215C409.819 217.48 413.528 215.944 417.396 215.944Z" fill="white"/>
<path d="M273.093 215.944C276.961 215.944 280.67 217.48 283.405 220.215C286.14 222.95 287.677 226.66 287.677 230.527V250.229H258.509V230.527C258.509 228.612 258.886 226.716 259.619 224.946C260.352 223.177 261.426 221.569 262.78 220.215C264.135 218.861 265.742 217.787 267.512 217.054C269.281 216.321 271.177 215.944 273.093 215.944Z" fill="white"/>
<path d="M509.211 202.046L460.639 180.554C460.378 180.439 460.096 180.379 459.81 180.379H228.325C228.06 180.379 227.799 180.431 227.554 180.53L174.683 202.022C174.244 202.201 173.88 202.527 173.654 202.944C173.428 203.362 173.354 203.845 173.445 204.311C173.536 204.777 173.787 205.197 174.153 205.498C174.519 205.8 174.979 205.965 175.454 205.965H189.171V276.582H187.636V283.746H496.2V276.582H493.642V205.965H508.382C508.852 205.965 509.307 205.804 509.671 205.508C510.036 205.213 510.288 204.801 510.385 204.342C510.482 203.882 510.418 203.404 510.204 202.986C509.991 202.568 509.64 202.236 509.211 202.046ZM489.548 276.582H193.265V205.965H489.548V276.582Z" fill="#CACACA"/>
<path d="M306.098 159.655H268.743V165.796H306.098V159.655Z" fill="#CACACA"/>
<path d="M360.852 159.655H323.497V165.796H360.852V159.655Z" fill="#CACACA"/>
<path d="M415.605 159.655H378.25V165.796H415.605V159.655Z" fill="#CACACA"/>
<path d="M436.074 248.182H398.719V254.322H436.074V248.182Z" fill="#CACACA"/>
<path d="M291.259 248.182H253.903V254.322H291.259V248.182Z" fill="#CACACA"/>
<path d="M569.373 284.059H0.627063C0.460755 284.059 0.301259 283.993 0.183662 283.876C0.0660649 283.758 0 283.599 0 283.432C0 283.266 0.0660649 283.106 0.183662 282.989C0.301259 282.871 0.460755 282.805 0.627063 282.805H569.373C569.539 282.805 569.699 282.871 569.816 282.989C569.934 283.106 570 283.266 570 283.432C570 283.599 569.934 283.758 569.816 283.876C569.699 283.993 569.539 284.059 569.373 284.059Z" fill="#3F3D56"/>
<path d="M426.319 109.222C426.319 109.623 426.313 110.031 426.306 110.432C426.3 110.915 426.288 111.391 426.269 111.874C426.25 112.294 426.231 112.708 426.206 113.122C426.131 114.508 426.012 115.887 425.849 117.273C425.811 117.624 425.767 117.969 425.717 118.32C425.679 118.59 425.642 118.866 425.598 119.142C425.554 119.449 425.51 119.756 425.46 120.064C425.359 120.716 425.247 121.368 425.121 122.02C425.059 122.346 424.996 122.672 424.927 122.998C424.795 123.644 424.651 124.296 424.501 124.942C424.488 124.992 424.475 125.049 424.463 125.099C424.388 125.419 424.312 125.732 424.231 126.052C424.206 126.146 424.187 126.234 424.156 126.328C424.099 126.566 424.036 126.805 423.974 127.043C423.886 127.375 423.798 127.701 423.704 128.034C423.553 128.548 423.403 129.056 423.246 129.57C423.227 129.623 423.21 129.678 423.196 129.733C422.895 130.705 422.575 131.664 422.224 132.617C422.042 133.119 421.848 133.627 421.654 134.129C421.459 134.63 421.259 135.132 421.052 135.627C420.851 136.11 420.644 136.593 420.437 137.07C420.387 137.182 420.337 137.295 420.28 137.408C420.061 137.904 419.835 138.386 419.603 138.869C419.597 138.876 419.597 138.888 419.591 138.894C419.409 139.283 419.214 139.672 419.02 140.054C419.02 140.066 419.015 140.077 419.007 140.086C418.819 140.462 418.625 140.838 418.424 141.208L418.104 141.816L418.067 141.885C417.665 142.632 417.252 143.372 416.813 144.105C416.719 144.268 416.625 144.431 416.531 144.588C416.436 144.751 416.336 144.914 416.236 145.071C416.173 145.184 416.104 145.297 416.029 145.409C415.897 145.623 415.765 145.842 415.628 146.055C415.602 146.099 415.571 146.143 415.546 146.187C415.308 146.557 415.07 146.921 414.831 147.291C414.536 147.736 414.235 148.175 413.928 148.614L407.118 159.512L406.824 159.268L406.742 159.192H406.736L406.466 158.967L405.726 158.339C405.5 158.559 405.281 158.778 405.055 158.992C404.967 159.079 404.873 159.161 404.786 159.249C404.717 159.311 404.654 159.374 404.585 159.437C392.812 170.934 377.151 177.592 360.703 178.092H360.684C348.233 178.434 335.907 175.525 324.923 169.652C324.678 169.526 324.44 169.401 324.202 169.257C322.772 168.479 321.374 167.658 320 166.78C319.994 166.773 319.988 166.773 319.982 166.767C318.389 165.638 316.834 164.434 315.316 163.155C307.175 156.293 300.735 147.638 296.499 137.87C292.264 128.101 290.349 117.484 290.905 106.851C290.924 106.431 290.949 106.017 290.98 105.597C291.08 104.08 291.235 102.568 291.444 101.063C291.5 100.643 291.563 100.223 291.626 99.8093H425.679C425.943 101.728 426.124 103.657 426.225 105.597C426.288 106.808 426.319 108.012 426.319 109.222Z" fill="#F0F0F0"/>
<path d="M425.679 99.8096C423.266 83.7602 415.174 69.1095 402.874 58.5209C390.574 47.9323 374.882 42.1086 358.653 42.1086C342.423 42.1086 326.732 47.9323 314.432 58.5209C302.132 69.1095 294.039 83.7602 291.626 99.8096C291.563 100.223 291.501 100.644 291.444 101.064C291.237 102.569 291.083 104.08 290.98 105.597H426.225C426.124 103.66 425.943 101.731 425.679 99.8096Z" fill="#ED2E38"/>
<path d="M363.043 169.65H324.205V138.581C324.921 124.382 337.057 123.236 348.46 123.998C350.375 123.998 352.271 124.375 354.041 125.108C355.81 125.84 357.418 126.915 358.772 128.269C360.126 129.623 361.201 131.231 361.933 133C362.666 134.769 363.044 136.666 363.043 138.581V169.65Z" fill="#ED2E38"/>
<path d="M324.202 147.56V147.567C324.202 147.573 324.208 147.573 324.214 147.573L324.202 147.56ZM308.582 99.8095C308.557 99.9663 308.525 100.123 308.5 100.28C308.525 100.123 308.556 99.9663 308.588 99.8095H308.582ZM307.804 105.597C307.785 105.836 307.766 106.074 307.754 106.312C307.766 106.074 307.785 105.836 307.81 105.597C307.809 105.553 307.811 105.509 307.817 105.466C307.81 105.509 307.81 105.553 307.804 105.597ZM324.202 147.567C324.202 147.573 324.208 147.573 324.214 147.573L324.202 147.56V147.567ZM308.582 99.8095C308.557 99.9663 308.525 100.123 308.5 100.28C308.525 100.123 308.556 99.9663 308.588 99.8095H308.582ZM307.754 106.312C307.766 106.074 307.785 105.836 307.81 105.597C307.809 105.553 307.811 105.509 307.817 105.466C307.81 105.509 307.81 105.553 307.804 105.597C307.785 105.836 307.766 106.074 307.754 106.312ZM501.479 221.667C501.357 221.537 501.227 221.416 501.09 221.303L501.084 221.297L470.031 195.092L469.229 194.414L466.175 191.837L465.41 191.191L461.058 187.517L459.867 186.513L457.402 184.432L456.142 183.366L444.253 173.339L437.437 167.589L436.521 166.817L416.436 149.868C416.744 149.429 417.045 148.99 417.339 148.545C417.578 148.175 417.816 147.811 418.054 147.441C418.079 147.397 418.111 147.353 418.136 147.309C418.274 147.096 418.405 146.877 418.537 146.664C418.612 146.551 418.681 146.438 418.744 146.325C418.844 146.168 418.945 146.005 419.039 145.842C419.133 145.685 419.227 145.522 419.321 145.359C419.76 144.626 420.174 143.886 420.575 143.14L420.613 143.071L420.932 142.462C421.133 142.092 421.328 141.716 421.516 141.34C421.523 141.331 421.528 141.32 421.528 141.309C421.722 140.926 421.917 140.537 422.099 140.148C422.105 140.142 422.105 140.13 422.111 140.123C422.343 139.641 422.569 139.158 422.789 138.662C422.845 138.549 422.895 138.437 422.945 138.324C423.152 137.847 423.359 137.364 423.56 136.882C423.767 136.386 423.967 135.884 424.162 135.383C424.356 134.881 424.551 134.373 424.732 133.872C425.077 132.912 425.401 131.951 425.704 130.987C425.718 130.932 425.735 130.877 425.755 130.824C425.911 130.31 426.062 129.802 426.212 129.288C426.306 128.955 426.394 128.629 426.482 128.297C426.545 128.059 426.607 127.82 426.664 127.582C426.695 127.488 426.714 127.4 426.739 127.306C426.821 126.986 426.896 126.673 426.971 126.353C426.984 126.303 426.996 126.247 427.009 126.196C427.159 125.55 427.303 124.898 427.435 124.252C427.504 123.926 427.567 123.6 427.629 123.274C427.749 122.622 427.868 121.97 427.968 121.318C428.018 121.011 428.062 120.703 428.106 120.396C428.15 120.12 428.188 119.844 428.225 119.575C428.275 119.223 428.319 118.879 428.357 118.527C428.52 117.142 428.639 115.762 428.714 114.376C428.739 113.962 428.758 113.548 428.777 113.128C428.796 112.646 428.808 112.169 428.815 111.686C428.821 111.285 428.827 110.877 428.827 110.476C428.827 109.266 428.796 108.062 428.733 106.851C428.633 104.914 428.451 102.985 428.188 101.064C425.941 84.6438 417.86 69.5808 405.422 58.628C392.985 47.6753 377.021 41.5643 360.449 41.4121C343.877 41.2599 327.803 47.0767 315.166 57.7992C302.53 68.5217 294.174 83.4337 291.626 99.8095C291.563 100.223 291.5 100.644 291.444 101.064C291.237 102.569 291.082 104.08 290.98 105.597C290.949 106.017 290.924 106.431 290.905 106.851C290.349 117.484 292.264 128.101 296.499 137.87C300.734 147.639 307.175 156.293 315.316 163.155C316.834 164.435 318.389 165.639 319.982 166.767C319.988 166.774 319.994 166.774 320 166.78C320.533 167.156 321.066 167.526 321.606 167.89C322.465 168.454 323.33 169.006 324.202 169.533C324.271 169.57 324.34 169.614 324.409 169.652C325.161 170.103 325.92 170.536 326.679 170.956H326.685C329.509 172.509 332.441 173.858 335.458 174.994C344.308 178.324 353.747 179.805 363.193 179.346H363.211C374.235 178.813 384.969 175.636 394.508 170.084C395.894 169.282 397.261 168.423 398.596 167.507C398.929 167.281 399.267 167.049 399.593 166.817C399.995 166.535 400.396 166.241 400.797 165.946C400.804 165.946 400.804 165.94 400.81 165.94C400.84 165.915 400.871 165.891 400.904 165.871C401.174 165.664 401.449 165.457 401.713 165.256C401.782 165.206 401.851 165.156 401.92 165.099C401.938 165.087 401.955 165.072 401.97 165.055C402.127 164.943 402.277 164.817 402.434 164.698C402.591 164.579 402.741 164.453 402.898 164.328C402.925 164.311 402.95 164.292 402.973 164.272C403.149 164.127 403.325 163.989 403.5 163.845C403.682 163.701 403.857 163.55 404.027 163.406C404.202 163.262 404.372 163.118 404.547 162.967C404.698 162.842 404.855 162.71 405.005 162.572C405.055 162.535 405.099 162.491 405.149 162.447C405.169 162.428 405.19 162.411 405.212 162.397C405.419 162.221 405.62 162.039 405.82 161.857C405.87 161.813 405.914 161.769 405.964 161.726C406.272 161.45 406.579 161.174 406.88 160.885C406.949 160.823 407.024 160.754 407.093 160.691C407.162 160.628 407.225 160.566 407.294 160.503C407.382 160.415 407.476 160.334 407.563 160.246C407.789 160.033 408.009 159.813 408.234 159.594L408.974 160.221L409.244 160.446H409.25L409.332 160.522L409.626 160.766L414.003 164.466L414.097 164.547L414.173 164.604L414.668 165.024L415.659 165.864L416.65 166.698L416.794 166.817L421.403 170.705L422.042 171.244L426.488 174.994L449.501 194.415L450.304 195.092L481.801 221.667L489.878 228.483L492.882 231.016C493.519 231.556 494.257 231.964 495.052 232.218C495.848 232.473 496.686 232.567 497.518 232.498C498.35 232.428 499.16 232.194 499.902 231.811C500.645 231.428 501.304 230.902 501.842 230.264C502.293 229.734 502.652 229.132 502.902 228.483C503.357 227.332 503.465 226.073 503.212 224.861C502.959 223.65 502.356 222.539 501.479 221.667ZM319.837 76.3072C326.128 68.8523 334.4 63.3293 343.696 60.376C352.993 57.4228 362.936 57.1599 372.375 59.6177C381.815 62.0755 390.367 67.1537 397.043 74.2657C403.719 81.3777 408.247 90.2333 410.103 99.8095C410.185 100.23 410.26 100.643 410.329 101.064C410.586 102.562 410.774 104.08 410.887 105.597C410.918 106.017 410.95 106.431 410.968 106.851C411.025 107.792 411.05 108.739 411.05 109.679C411.053 115.385 410.108 121.052 408.253 126.447V126.453C406.18 132.503 402.996 138.113 398.866 142.995C398.778 143.096 398.69 143.202 398.596 143.303C397.769 144.281 396.897 145.221 396 146.118C395.994 146.124 395.988 146.137 395.982 146.143C395.674 146.45 395.361 146.764 395.047 147.052C394.408 147.673 393.756 148.263 393.091 148.827C392.094 149.699 391.072 150.516 390.025 151.279C389.673 151.536 389.322 151.787 388.965 152.038C388.614 152.288 388.256 152.527 387.899 152.765C387.184 153.242 386.456 153.699 385.723 154.132C385.359 154.351 384.983 154.565 384.613 154.772C384.243 154.985 383.867 155.185 383.49 155.38C383.114 155.581 382.738 155.775 382.356 155.963C381.597 156.345 380.832 156.703 380.054 157.035C379.665 157.211 379.277 157.374 378.888 157.524C378.643 157.625 378.405 157.725 378.16 157.813C378.065 157.857 377.966 157.895 377.866 157.926C377.734 157.982 377.602 158.032 377.471 158.076C377.428 158.096 377.384 158.112 377.339 158.126C377.069 158.233 376.806 158.327 376.53 158.421C376.135 158.565 375.74 158.697 375.339 158.822C374.937 158.954 374.542 159.079 374.141 159.192C373.74 159.318 373.332 159.431 372.931 159.537C372.523 159.65 372.122 159.757 371.714 159.851C371.282 159.964 370.849 160.064 370.41 160.158C370.027 160.246 369.651 160.321 369.269 160.39C368.911 160.465 368.548 160.528 368.19 160.591C367.688 160.679 367.187 160.76 366.679 160.829C366.403 160.873 366.133 160.911 365.857 160.936C365.738 160.954 365.625 160.967 365.513 160.98C365.161 161.03 364.81 161.067 364.465 161.099C364.371 161.105 364.284 161.117 364.196 161.124C363.813 161.161 363.424 161.193 363.042 161.224C362.221 161.281 361.405 161.318 360.584 161.337C360.17 161.343 359.75 161.349 359.336 161.349C358.922 161.349 358.508 161.343 358.094 161.331C358.094 161.331 358.094 161.337 358.088 161.331C358.082 161.337 358.082 161.337 358.076 161.331C358.075 161.332 358.074 161.332 358.073 161.333C358.072 161.333 358.07 161.333 358.069 161.333C358.068 161.333 358.067 161.333 358.066 161.333C358.065 161.332 358.064 161.332 358.063 161.331C358.043 161.337 358.021 161.337 358 161.331C357.706 161.331 357.411 161.318 357.122 161.299C356.909 161.293 356.69 161.287 356.47 161.268C356.176 161.255 355.881 161.237 355.586 161.212C355.492 161.212 355.398 161.199 355.304 161.193C355.26 161.192 355.216 161.188 355.172 161.18C354.871 161.155 354.564 161.13 354.263 161.099C354.113 161.086 353.956 161.074 353.805 161.055C353.347 161.005 352.89 160.948 352.438 160.886C351.924 160.823 351.41 160.748 350.902 160.653C350.664 160.622 350.432 160.578 350.2 160.534C349.892 160.484 349.585 160.428 349.278 160.365C348.958 160.302 348.638 160.24 348.318 160.164C348.061 160.108 347.798 160.052 347.541 159.989C347.415 159.964 347.29 159.932 347.171 159.901C346.513 159.744 345.86 159.575 345.214 159.387C344.807 159.274 344.399 159.155 343.998 159.029C343.446 158.86 342.901 158.678 342.355 158.484C342.142 158.415 341.935 158.34 341.722 158.258C341.509 158.189 341.302 158.108 341.089 158.026C340.894 157.957 340.7 157.882 340.512 157.807C340.198 157.687 339.891 157.562 339.583 157.437C338.95 157.18 338.329 156.91 337.709 156.622C337.357 156.452 337.006 156.289 336.661 156.12C335.301 155.461 333.961 154.73 332.642 153.925C332.316 153.731 331.99 153.524 331.664 153.317C331.256 153.066 330.861 152.803 330.466 152.539C330.247 152.389 330.033 152.245 329.82 152.094C329.425 151.818 329.036 151.536 328.654 151.254C328.453 151.11 328.252 150.959 328.058 150.809C327.362 150.282 326.679 149.73 326.008 149.166C325.688 148.896 325.368 148.62 325.054 148.338C324.923 148.225 324.791 148.106 324.659 147.987C324.509 147.849 324.358 147.717 324.214 147.573L324.202 147.56C323.982 147.366 323.763 147.159 323.549 146.952C323.217 146.639 322.891 146.319 322.578 145.993C322.251 145.673 321.938 145.341 321.631 145.015C321.317 144.688 321.016 144.356 320.721 144.017C320.42 143.685 320.126 143.347 319.837 143.002C319.555 142.676 319.279 142.337 319.016 142.005C318.376 141.215 317.766 140.41 317.185 139.59C316.915 139.214 316.658 138.838 316.407 138.455C316.138 138.067 315.88 137.672 315.636 137.277C315.379 136.882 315.134 136.48 314.896 136.073C314.89 136.059 314.881 136.046 314.871 136.035C314.401 135.239 313.949 134.436 313.529 133.621C313.096 132.793 312.689 131.957 312.306 131.113C312.112 130.692 311.924 130.266 311.748 129.84C311.384 128.98 311.046 128.121 310.732 127.25C310.575 126.83 310.431 126.41 310.287 125.983C310.282 125.955 310.274 125.928 310.262 125.902C309.974 125.036 309.71 124.165 309.478 123.287C309.472 123.274 309.472 123.262 309.466 123.249C309.346 122.817 309.234 122.384 309.133 121.945C309.033 121.562 308.945 121.18 308.864 120.791C308.77 120.358 308.676 119.926 308.594 119.487C308.55 119.261 308.506 119.035 308.469 118.81C308.431 118.621 308.4 118.427 308.368 118.239C308.337 118.051 308.306 117.856 308.274 117.662C308.211 117.28 308.155 116.897 308.105 116.515C308.042 116.063 307.992 115.612 307.942 115.154C307.885 114.608 307.835 114.063 307.791 113.511C307.76 113.141 307.741 112.765 307.722 112.388C307.703 112.044 307.685 111.699 307.679 111.354C307.672 111.336 307.672 111.316 307.679 111.297C307.678 111.297 307.677 111.296 307.677 111.295C307.676 111.293 307.676 111.292 307.676 111.291C307.676 111.29 307.676 111.289 307.677 111.288C307.677 111.287 307.678 111.286 307.679 111.285C307.672 111.279 307.672 111.279 307.679 111.272C307.678 111.271 307.677 111.271 307.677 111.269C307.676 111.268 307.676 111.267 307.676 111.266C307.676 111.265 307.676 111.264 307.677 111.263C307.677 111.262 307.678 111.261 307.679 111.26C307.672 111.122 307.666 110.984 307.666 110.846C307.653 110.438 307.647 110.031 307.647 109.623C307.647 109.253 307.653 108.889 307.66 108.52C307.672 108.005 307.691 107.491 307.716 106.977C307.716 106.864 307.729 106.757 307.735 106.645C307.741 106.532 307.747 106.425 307.754 106.312C307.766 106.074 307.785 105.836 307.81 105.597C307.809 105.553 307.811 105.509 307.816 105.466C307.835 105.196 307.86 104.926 307.885 104.657C307.936 104.118 307.998 103.572 308.067 103.033C308.105 102.763 308.136 102.493 308.18 102.224C308.205 102.036 308.237 101.841 308.268 101.647C308.293 101.453 308.324 101.258 308.362 101.064C308.406 100.807 308.45 100.543 308.5 100.28C308.525 100.123 308.556 99.9664 308.588 99.8096C308.707 99.1825 308.838 98.5555 308.983 97.9284C309.127 97.2951 309.29 96.668 309.466 96.041C309.635 95.4076 309.823 94.7743 310.024 94.141C310.118 93.8212 310.218 93.5076 310.331 93.1941C310.538 92.5608 310.757 91.9337 311.002 91.3129C311.115 91.0057 311.234 90.6921 311.366 90.3849C311.616 89.7641 311.88 89.1433 312.149 88.535C312.287 88.2278 312.425 87.9205 312.576 87.6132C312.858 87.005 313.153 86.3967 313.473 85.801C313.78 85.1928 314.112 84.5971 314.451 84.0076C314.789 83.4182 315.14 82.8287 315.511 82.2456C315.68 81.9571 315.868 81.6624 316.062 81.3802C316.439 80.8033 316.834 80.2264 317.235 79.6621C318.044 78.5207 318.916 77.3983 319.837 76.3072ZM307.804 105.597C307.785 105.836 307.766 106.074 307.754 106.312C307.766 106.074 307.785 105.836 307.81 105.597C307.809 105.553 307.811 105.509 307.817 105.466C307.81 105.509 307.81 105.553 307.804 105.597ZM308.582 99.8095C308.557 99.9663 308.525 100.123 308.5 100.28C308.525 100.123 308.557 99.9663 308.588 99.8095H308.582ZM324.202 147.56V147.567C324.202 147.573 324.208 147.573 324.214 147.573L324.202 147.56Z" fill="#3F3D56"/>
<path opacity="0.3" d="M326.008 149.165C316.09 140.795 309.682 129.001 308.057 116.126C306.431 103.25 309.708 90.2334 317.235 79.6614C316.247 80.6569 315.291 81.6995 314.368 82.7892C309.99 87.9783 306.676 93.979 304.617 100.449C302.557 106.918 301.792 113.73 302.365 120.496C302.938 127.261 304.838 133.847 307.957 139.878C311.075 145.909 315.351 151.267 320.54 155.645C331.02 164.488 344.584 168.806 358.247 167.648C371.91 166.491 384.554 159.953 393.397 149.473C394.317 148.382 395.184 147.265 395.997 146.121C386.842 155.319 374.563 160.739 361.597 161.303C348.631 161.867 335.928 157.534 326.008 149.165Z" fill="black"/>
</g>
<defs>
<clipPath id="clip0_336_331">
<rect width="570" height="284.059" fill="white"/>
</clipPath>
</defs>
</svg>
