<svg width="300" height="300" viewBox="0 0 300 300" fill="none" xmlns="http://www.w3.org/2000/svg">
<path d="M164.353 46.4839H112.21V140.919C112.21 140.919 116.642 140.913 122.995 140.907C134.26 140.896 151.563 140.888 160.9 140.919C175.502 140.965 210.672 139.267 210.68 93.7014C210.69 44.0417 164.353 46.4839 164.353 46.4839Z" fill="white"/>
<path d="M150 0C67.1575 0 0 67.1574 0 150C0 232.842 67.1575 299.999 150 299.999C232.843 299.999 300 232.842 300 150C300 67.1574 232.843 0 150 0ZM163.127 156.219C152.415 156.194 129.54 156.255 112.727 156.219V268.816H92.7972L92.8736 263.033L69.8856 263.338V255.623H79.1423L79.065 250.223H69.8856V246.212H78.9877L79.065 240.657H69.8856V236.646H78.9877L79.065 230.628H69.8856V223.685L92.7972 223.917V156.219H92.7703V31.1832H163.088C163.088 31.1832 230.115 33.8583 230.115 93.7015C230.115 143.407 183.493 156.267 163.127 156.219Z" fill="white"/>
</svg>
