<svg width="39" height="186" viewBox="0 0 39 186" fill="none" xmlns="http://www.w3.org/2000/svg">
<g filter="url(#filter0_d_232_175)">
<path d="M18.9999 12.9896C18.9942 12.4373 18.5418 11.9943 17.9896 12.0001C17.4373 12.0058 16.9943 12.4582 17.0001 13.0104L18.9999 12.9896ZM18.9669 173.706C19.3614 174.092 19.9946 174.086 20.381 173.691L26.6783 167.261C27.0648 166.867 27.0582 166.233 26.6636 165.847C26.269 165.461 25.6359 165.467 25.2495 165.862L19.6518 171.577L13.9364 165.98C13.5418 165.593 12.9087 165.6 12.5222 165.994C12.1358 166.389 12.1424 167.022 12.537 167.408L18.9669 173.706ZM17.0001 13.0104L18.6666 173.002L20.6665 172.981L18.9999 12.9896L17.0001 13.0104Z" fill="white"/>
</g>
<defs>
<filter id="filter0_d_232_175" x="0.236694" y="0" width="38.7272" height="185.991" filterUnits="userSpaceOnUse" color-interpolation-filters="sRGB">
<feFlood flood-opacity="0" result="BackgroundImageFix"/>
<feColorMatrix in="SourceAlpha" type="matrix" values="0 0 0 0 0 0 0 0 0 0 0 0 0 0 0 0 0 0 127 0" result="hardAlpha"/>
<feOffset/>
<feGaussianBlur stdDeviation="6"/>
<feComposite in2="hardAlpha" operator="out"/>
<feColorMatrix type="matrix" values="0 0 0 0 1 0 0 0 0 1 0 0 0 0 1 0 0 0 0.5 0"/>
<feBlend mode="normal" in2="BackgroundImageFix" result="effect1_dropShadow_232_175"/>
<feBlend mode="normal" in="SourceGraphic" in2="effect1_dropShadow_232_175" result="shape"/>
</filter>
</defs>
</svg>
