<svg width="16" height="16" viewBox="0 0 16 16" fill="none" xmlns="http://www.w3.org/2000/svg">
<path d="M8 0C3.58862 0 0 3.58862 0 8C0 9.50492 0.418154 10.9658 1.21138 12.2345C0.895385 13.3415 0.324615 15.4357 0.318462 15.4575C0.288923 15.5658 0.320615 15.6815 0.401538 15.7594C0.482462 15.8372 0.599385 15.8649 0.705846 15.8323L3.87692 14.8569C5.11908 15.6052 6.54154 16 8 16C12.4114 16 16 12.4114 16 8C16 3.58862 12.4114 0 8 0ZM8 15.3846C6.60954 15.3846 5.25508 14.996 4.08277 14.2612C4.03323 14.2302 3.97631 14.2145 3.91938 14.2145C3.88892 14.2145 3.85846 14.2191 3.82892 14.228L1.06 15.0803C1.26338 14.3378 1.62892 13.0098 1.84092 12.2711C1.86554 12.1855 1.85169 12.0932 1.80338 12.0185C1.02615 10.8225 0.615385 9.43292 0.615385 8C0.615385 3.92831 3.92831 0.615385 8 0.615385C12.0717 0.615385 15.3846 3.92831 15.3846 8C15.3846 12.0717 12.0717 15.3846 8 15.3846Z" fill="white"/>
<path d="M13.2262 9.88492C12.6582 9.56954 12.1745 9.25323 11.8215 9.02246C11.552 8.84646 11.3572 8.71938 11.2145 8.64769C10.8154 8.44861 10.5129 8.58923 10.3978 8.70554C10.3834 8.72 10.3705 8.73569 10.3594 8.75231C9.94492 9.37415 9.40369 9.96892 9.24523 10.0009C9.06215 9.9723 8.20523 9.48523 7.35354 8.776C6.484 8.05138 5.93692 7.35753 5.85661 6.88492C6.41446 6.31077 6.61538 5.94954 6.61538 5.53846C6.61538 5.11477 5.62708 3.34584 5.44831 3.16707C5.26892 2.988 4.86492 2.96 4.24738 3.08307C4.188 3.09507 4.13323 3.1243 4.09015 3.16707C4.01538 3.24184 2.26585 5.02553 3.09723 7.18738C4.00985 9.56 6.35231 12.3178 9.33877 12.7658C9.67815 12.8166 9.99631 12.8418 10.2942 12.8418C12.0511 12.8418 13.088 11.9578 13.38 10.2043C13.4018 10.076 13.34 9.948 13.2262 9.88492ZM9.43015 12.1572C6.272 11.6837 4.28277 8.55477 3.67169 6.96646C3.06554 5.39107 4.18338 3.98646 4.464 3.66892C4.69231 3.63015 4.93261 3.61384 5.03292 3.62953C5.24246 3.92092 5.968 5.29169 6 5.53846C6 5.7 5.94738 5.92492 5.32092 6.55169C5.26308 6.60923 5.23077 6.68738 5.23077 6.76923C5.23077 8.3803 8.62892 10.6154 9.23077 10.6154C9.75415 10.6154 10.4366 9.73569 10.8252 9.16246C10.8477 9.16338 10.8855 9.17107 10.9394 9.19815C11.0502 9.25384 11.2422 9.37907 11.4849 9.53784C11.8055 9.74738 12.2314 10.0255 12.7342 10.3138C12.5058 11.4123 11.8677 12.5234 9.43015 12.1572Z" fill="white"/>
</svg>
